<?xml version="1.0" standalone="no"?>
<!DOCTYPE svg PUBLIC "-//W3C//DTD SVG 20010904//EN"
 "http://www.w3.org/TR/2001/REC-SVG-20010904/DTD/svg10.dtd">
<svg version="1.0" xmlns="http://www.w3.org/2000/svg"
 width="200.000000pt" height="200.000000pt" viewBox="0 0 200.000000 200.000000"
 preserveAspectRatio="xMidYMid meet">
<metadata>
Created by potrace 1.11, written by Peter Selinger 2001-2013
</metadata>
<g transform="translate(0.000000,200.000000) scale(0.100000,-0.100000)"
fill="#000000" stroke="none">
<path d="M399 1989 c-201 -29 -332 -146 -380 -339 -20 -80 -20 -1219 0 -1300
21 -85 60 -158 117 -216 58 -60 126 -95 229 -120 49 -12 1181 -14 1255 -3 137
22 259 105 318 217 59 111 61 145 59 797 -2 325 -6 599 -10 610 -3 11 -10 36
-15 55 -24 98 -123 214 -216 255 -114 51 -147 54 -745 53 -306 0 -581 -4 -612
-9z"/>
</g>
</svg>
